<?xml version="1.0" encoding="utf-8"?>
<!-- Generator: Adobe Illustrator 23.1.0, SVG Export Plug-In . SVG Version: 6.00 Build 0)  -->
<svg version="1.1" id="Layer_1" xmlns="http://www.w3.org/2000/svg" xmlns:xlink="http://www.w3.org/1999/xlink" x="0px" y="0px"
	 viewBox="0 0 1200 1200" enable-background="new 0 0 1200 1200" xml:space="preserve">
<g>
	<g>
		<g>
			<path fill="#FFFFFF" d="M412.177,202.06c5.904-11.669,10.172-24.088,17.628-34.147c32.511-43.868,89.761-49.845,135.251-15.181
				c3.463,2.639,6.248,6.814,7.914,10.865c0.721,1.753-2.203,5.005-3.868,8.382c-33.475-38.095-96.881-44.711-132.127,5.089
				c-10.481,14.809-16.693,31.418-6.617,48.989c11.967,20.869,11.195,42.128,4.414,64.041c-3.945,12.75-9.141,25.288-11.386,38.333
				c-1.681,9.772-1.714,20.887,1.254,30.217c12.864,40.438,55.609,50.15,84.836,19.837c6.762-7.014,13.083-14.557,18.837-22.419
				c13.388-18.297,31.4-24.571,52.853-19.827c10.39,2.298,20.296,7.095,30.108,11.463c2.377,1.058,3.514,4.896,7.219,10.449
				c-23.329-0.423-40.64-19.81-63.345-8.773c4.464,2.048,7.462,3.7,10.644,4.842c87.16,31.272,175.547,58.107,267.117,73.29
				c28.438,4.715,56.822,8.883,85.547,0.834c33.819-9.477,58.851-29.019,72.054-61.863c18.673-46.452-6.019-95.014-54.277-107.968
				c-20.547-5.516-40.692-3.87-60.585,3.301c-4.968,1.791-9.967,6.424-15.739,0.805c0-1.331-0.51-3.896,0.076-4.177
				c11.298-5.42,22.725-10.572,35.26-16.298c6.043-29.177-4.625-53.491-26.479-73.501c-22.009-20.151-48.765-30.12-78.115-33.203
				c-32.591-3.425-63.521,2.021-92.044,18.834c-4.35,2.564-8.664,6.067-14.014-0.14c5.156-13.409,20.931-13.079,29.254-21.752
				c-2.304-15.659-6.307-25.686-15.243-36.724c-44.144-54.524-128.459-40.582-148.547,14.017c-1.588,4.316-3.385,9.096-9.801,6.697
				c-1.349-7.496-1.349-7.496,4.075-24.355c-32.643-25.726-87.021-21.561-118.968,8.503
				C398.342,125.949,389.606,172.068,412.177,202.06z"/>
			<g>
				<path fill="#E2E1E0" d="M560.957,90.497c40.768-6.562,87.727-5.446,140.612,9.05c-0.926-1.29-1.904-2.584-2.964-3.892
					C660.207,48.228,591.435,52.621,560.957,90.497z"/>
				<path fill="#E2E1E0" d="M544.334,92.015c-32.644-25.727-87.023-21.561-118.969,8.503
					c-18.502,17.412-28.417,44.521-25.595,69.513c28.702-26.455,77.176-61.419,143.996-76.251
					C543.953,93.199,544.132,92.641,544.334,92.015z"/>
			</g>
			<g>
				<path fill="#E2E1E0" d="M422.322,338.616c-0.279,6.855,0.348,13.834,2.319,20.03c12.864,40.438,55.608,50.15,84.836,19.837
					c6.762-7.014,13.083-14.557,18.837-22.419c0.928-1.268,1.883-2.465,2.855-3.617
					C484.123,347.686,445.373,342.184,422.322,338.616z"/>
				<path fill="#E2E1E0" d="M918.459,428.341c33.819-9.476,58.851-29.019,72.053-61.863c10.237-25.466,7.418-51.552-5.149-72.072
					c-75.254,73.324-269.828,73.463-414.268,61.695c85.444,30.459,172.101,56.532,261.816,71.407
					C861.349,432.223,889.732,436.391,918.459,428.341z"/>
			</g>
			<path fill="#BAE2DA" d="M464.168,854.649c1.301-7.877,2.366-14.902,3.641-21.888c1.384-7.583,2.602-15.223,4.513-22.679
				c22.636-88.308,53.993-173.695,88.127-258.047c6.83-16.878,18.413-31.973,28.816-47.2c4.205-6.156,10.528-11.405,16.923-15.421
				c16.634-10.446,30.14-3.811,33.333,15.722c0.494,3.021,0.316,6.151,0.471,9.23c1.053,20.922-3.84,40.992-10.259,60.503
				c-14.131,42.95-29.124,85.617-43.925,128.345c-16.483,47.583-33.152,95.101-49.713,142.657
				c-3.182,9.137-6.24,18.318-9.843,28.917c8.046,1.936,15.262,2.776,21.733,5.43c10.811,4.434,17.301-0.086,23.406-8.369
				c24.136-32.749,46.906-66.236,64.333-103.241c24.542-52.112,47.998-104.593,67.206-158.99
				c6.619-18.747,16.451-36.523,26.327-53.883c4.378-7.695,11.627-14.618,19.13-19.493c14.71-9.557,29.143-3.702,33.327,13.198
				c2.182,8.818,3.275,18.479,2.136,27.413c-1.809,14.189-5.009,28.357-9.165,42.066c-29.447,97.123-84.061,180.25-145.336,259.616
				c-2.606,3.376-5.045,6.881-8.729,11.925c23.543,0.136,44.193-0.777,58.56-19.008c15.91-20.187,32.109-40.27,46.372-61.607
				c35.176-52.625,66.555-107.488,93.164-165.005c24.186-52.281,47.801-104.786,63.409-160.436
				c3.569-12.722,6.331-25.671,9.626-39.175c-122.286-10.272-236.273-46.023-349.388-87.558c-3.587,4.284-6.69,8.314-10.131,12.032
				c-8.021,8.666-15.484,18.038-24.468,25.584c-20.651,17.346-46.566,17.487-68.236,1.547c-25.328-18.631-34.681-46.133-26.057-78
				c2.68-9.904,6.261-19.577,9.724-29.251c2.319-6.48,1.008-11.407-3.449-16.866c-10.253-12.555-19.646-25.812-30.253-39.935
				c-2.872,4.729-5.801,9.41-8.593,14.17c-24.507,41.778-45.096,85.456-62.878,130.465c-35.05,88.722-63.563,179.281-74.083,274.555
				c-2.131,19.299-1.659,39.01-0.866,58.469c0.664,16.301,10.845,27.365,24.735,37.249c1.777-22.88,3.094-43.817,5.124-64.685
				c1.543-15.853,4.167-31.598,6.008-47.426c8.217-70.653,29.621-137.522,58.947-201.938c4.966-10.907,13.714-20.313,21.718-29.543
				c5.751-6.631,14.232-8.654,22.664-5.467c9.182,3.47,13.117,11.498,13.55,20.719c0.383,8.159,0.685,16.704-1.243,24.52
				c-6.393,25.908-12.299,52.093-21.118,77.216c-26.427,75.288-48.895,151.617-64.707,229.841
				c-1.886,9.331-2.053,19.009-2.947,27.842c17.667,11.242,33.32,21.479,51.467,29.697c0.551-4.041,0.835-5.993,1.082-7.951
				c4.903-38.747,9.01-77.617,14.884-116.217c9.371-61.574,32.393-118.876,58.653-174.81c7.335-15.623,18.605-29.487,28.788-43.642
				c4.131-5.743,9.849-10.517,15.432-15c7.026-5.642,15.139-9.726,24.175-5.085c8.929,4.586,10.588,13.437,10.51,22.484
				c-0.048,5.624-0.526,11.336-1.649,16.838c-1.539,7.535-3.456,15.05-5.937,22.326c-12.272,35.995-24.497,72.011-37.276,107.828
				c-23.503,65.868-44.748,132.412-61.498,200.341c-1.177,4.775-1.778,9.693-2.786,15.321c17.527,7.073,33.655,13.662,49.859,20.06
				C455.192,852.414,459.144,853.207,464.168,854.649z"/>
			<path fill="#F2BA2F" d="M741.967,436.669c-68.116-16.187-132.89-37.857-194.527-60.289c-1.156,1.364-2.35,2.728-3.59,4.069
				c-2.118,2.288-4.197,4.626-6.272,6.968c-6.005,6.763-12.216,13.758-19.636,19.991c-13.217,11.099-28.714,16.969-44.81,16.969
				c-14.964,0-29.827-5.117-42.986-14.794c-30.546-22.472-42.197-57.057-31.96-94.891c2.566-9.468,5.839-18.581,9.004-27.392
				c0,0,1.167-3.262,1.194-3.343c-0.166-0.267-0.444-0.672-0.9-1.233c-5.735-7.018-11.111-14.117-16.583-21.483
				c-21.452,37.328-40.512,77.315-58.162,121.989c-41.471,104.977-64.009,188.394-73.071,270.477
				c-0.584,5.294-0.958,10.635-1.183,15.98c0.293-2.367,0.619-4.667,0.931-7.01c-3.088,28.777-3.766,56.41-1.157,81.775
				c0,0,166.2,169.085,395.143,147.871c0,0,195.603-269.348,218.75-433.049L741.967,436.669z M263.212,633.749
				c6.076-52.241,19.393-104.766,40.407-159.372c-17.221,51.946-32.477,107.917-40.653,161.261
				C263.041,635.008,263.139,634.38,263.212,633.749z"/>
			<path fill="#BAE2DA" d="M671.86,894.252c-28.591,9.755-56.181,8.457-83.722,4.63c-68.301-9.49-132.931-31.437-195.317-59.977
				c-56.708-25.942-111.93-54.555-153.684-102.571c-19.781,3.63-33.916,9.339-48.529,19.501
				c-25.065,17.431-25.979,28.245-4.345,50.167c40.415,40.954,85.6,75.217,137.446,100.767
				c36.536,18.004,73.94,33.636,112.96,45.094c63.72,18.712,128.035,34.774,194.975,36.13c10.154,0.207,20.652-0.324,30.443-2.734
				c11.033-2.716,19.575-10.17,20.432-22.475C684.141,939.48,678.84,917.227,671.86,894.252z"/>
			<path fill="#F2BA2F" d="M631.881,976.127c-66.521-1.349-131.527-17.932-191.864-35.655
				c-35.056-10.291-71.383-24.799-111.06-44.354c-48.574-23.933-92.487-56.141-134.244-98.454
				c-10.798-10.94-12.127-15.613-11.961-17.425c0.166-1.789,2.288-6.071,14.635-14.658c11.567-8.042,22.759-12.946,37.432-16.254
				c44.029,48.091,101.936,76.986,153.06,100.374c70.436,32.219,135.407,52.156,198.623,60.94
				c14.585,2.025,26.588,2.968,37.776,2.968c14.032,0,27.064-1.515,39.504-4.614c5.175,18.805,8.1,35.593,6.891,52.968
				c-0.421,6.048-4.263,10.005-11.42,11.767c-6.651,1.639-14.411,2.431-23.728,2.431
				C635.522,976.162,633.091,976.15,631.881,976.127z"/>
			<path fill="#BAE2DA" d="M624.76,495.878c-15.277,3.484-18.124,5.24-26.698,15.778c-13.731,16.879-24.481,35.536-32.156,55.856
				c-13.239,35.053-26.787,70.009-39.063,105.402c-16.982,48.962-34.774,97.735-45.254,148.676
				c-2.548,12.384-4.005,24.992-6.078,38.227c14.527,4.313,27.039,8.029,39.942,11.86c2.717-7.174,4.826-12.361,6.659-17.643
				c26.245-75.645,52.527-151.278,78.618-226.977c6.855-19.888,13.401-39.896,19.516-60.023c5.386-17.728,9.587-35.79,7.901-54.554
				C627.67,507.149,626.029,501.921,624.76,495.878z"/>
			<path fill="#BAE2DA" d="M756.916,782.576c-7.672,11.433-12.749,20.932-19.651,28.84c-10.795,12.37-12.184,26.198-10.68,41.587
				c2.682,27.439,28.197,63.919,61.49,66.207c25.307,1.74,49.152-2.025,70.836-16.104c29.336-19.047,54.16-42.944,72.915-72.26
				c17.708-27.68,34.219-56.234,49.496-85.328c15.277-29.093,29.364-58.927,37.336-91.13c8.023-32.406,8.243-64.186-7.956-94.515
				c-17.685-33.11-46.453-48.852-82.291-44.664c-10.173,1.189-20.197,3.704-30.264,5.734c-11.644,2.348-18.692,9.572-22.908,20.57
				c-6.989,18.23-14.642,36.204-21.889,54.337c-1.184,2.963-1.717,6.186-2.868,10.468c6.868-3.923,11.993-7.481,17.612-9.883
				c5.612-2.399,11.612-4.277,17.625-5.28c22.506-3.752,38.088,7.693,41.931,30.248c2.721,15.971,1.456,31.806-2.092,47.444
				c-10.173,44.825-30.385,85.055-57.36,121.941c-6.009,8.217-13.179,16.177-21.396,22.042
				c-10.314,7.361-21.668,14.24-33.613,18.147c-28.669,9.376-51.473-6.31-55.231-36.32
				C757.601,791.797,757.456,788.913,756.916,782.576z"/>
			<path fill="#0B3651" d="M232.695,724.631c-7.564-70.073,7.33-135.723,24.584-200.879
				c24.82-93.724,59.097-183.884,105.907-268.985c10.132-18.421,21.887-35.949,33.253-54.472
				c-16.17-41.668-10.515-80.353,24.228-110.311c40.819-35.197,86.219-32.985,131.92-9.051
				c56.171-56.992,154.944-31.877,174.197,47.855c7.901-1.343,15.853-2.898,23.867-4.021c37.462-5.251,72.863,1.221,105.423,20.431
				c27.33,16.124,46.499,38.887,51.331,71.309c1.192,8.002,0.178,16.333,0.178,26.332c5.217,0.539,10.623,0.973,15.996,1.672
				c43.181,5.611,73.71,32.143,82.335,72.022c5.359,24.777,0.749,48.216-12.341,69.624c-18.738,30.644-45.916,49.254-81.789,54.537
				c-2.505,0.369-4.982,0.931-8.271,1.554c-5.612,22.814-11.187,45.48-17.159,69.761c4.628-0.826,7.937-1.35,11.217-2.016
				c5.034-1.022,10.034-2.211,15.073-3.207c60.029-11.875,106.509,18.772,119.741,78.984c5.069,23.066,3.241,45.885-2.065,68.719
				c-7.282,31.335-20.698,60.258-35.016,88.703c-22.888,45.471-45.856,91.174-81.719,128.239
				c-14.198,14.675-30.39,27.66-46.812,39.888c-20.983,15.624-45.755,20.124-71.508,19.997
				c-44.205-0.218-70.932-37.413-77.77-65.659c-1.295-5.349-2.304-10.769-3.477-16.305c-1.765,0.714-3.012,0.822-3.556,1.497
				c-9.97,12.362-19.857,24.791-27.98,34.972c3.911,22.415,8.756,42.439,10.641,62.738c3.078,33.126-14.191,51.657-47.976,50.977
				c-26.648-0.537-53.495-2.239-79.806-6.319c-66.682-10.339-131.853-27.04-194.541-52.417
				c-72.296-29.266-137.731-69.117-191.851-126.073c-4.587-4.827-9.297-9.701-12.959-15.211
				c-10.337-15.552-9.54-26.429,3.169-40.301c12.048-13.152,27.289-21.654,43.892-27.783
				C219.279,729.13,225.596,727.079,232.695,724.631z M464.168,854.649c1.301-7.877,2.366-14.902,3.641-21.888
				c1.384-7.583,2.602-15.223,4.513-22.679c22.636-88.308,53.993-173.695,88.127-258.047c6.83-16.878,18.413-31.973,28.816-47.2
				c4.205-6.156,10.528-11.405,16.923-15.421c16.634-10.446,30.14-3.811,33.333,15.722c0.494,3.021,0.316,6.151,0.471,9.23
				c1.053,20.922-3.84,40.992-10.259,60.503c-14.131,42.95-29.124,85.617-43.925,128.345
				c-16.483,47.583-33.152,95.101-49.713,142.657c-3.182,9.137-6.24,18.318-9.843,28.917c8.046,1.936,15.262,2.776,21.733,5.43
				c10.811,4.434,17.301-0.086,23.406-8.369c24.136-32.749,46.906-66.236,64.333-103.241
				c24.542-52.112,47.998-104.593,67.206-158.99c6.619-18.747,16.451-36.523,26.327-53.883c4.378-7.695,11.627-14.618,19.13-19.493
				c14.71-9.557,29.143-3.702,33.327,13.198c2.182,8.818,3.275,18.479,2.136,27.413c-1.809,14.189-5.009,28.357-9.165,42.066
				c-29.447,97.123-84.061,180.25-145.336,259.616c-2.606,3.376-5.045,6.881-8.729,11.925c23.543,0.136,44.193-0.777,58.56-19.008
				c15.91-20.187,32.109-40.27,46.372-61.607c35.176-52.625,66.555-107.488,93.164-165.005
				c24.186-52.281,47.801-104.786,63.409-160.436c3.569-12.722,6.331-25.671,9.626-39.175
				c-122.286-10.272-236.273-46.023-349.388-87.558c-3.587,4.284-6.69,8.314-10.131,12.032
				c-8.021,8.666-15.484,18.038-24.468,25.584c-20.651,17.346-46.566,17.487-68.236,1.547c-25.328-18.631-34.681-46.133-26.057-78
				c2.68-9.904,6.261-19.577,9.724-29.251c2.319-6.48,1.008-11.407-3.449-16.866c-10.253-12.555-19.646-25.812-30.253-39.935
				c-2.872,4.729-5.801,9.41-8.593,14.17c-24.507,41.778-45.096,85.456-62.878,130.465c-35.05,88.722-63.563,179.281-74.083,274.555
				c-2.131,19.299-1.659,39.01-0.866,58.469c0.664,16.301,10.845,27.365,24.735,37.249c1.777-22.88,3.094-43.817,5.124-64.685
				c1.543-15.853,4.167-31.598,6.008-47.426c8.217-70.653,29.621-137.522,58.947-201.938c4.966-10.907,13.714-20.313,21.718-29.543
				c5.751-6.631,14.232-8.654,22.664-5.467c9.182,3.47,13.117,11.498,13.55,20.719c0.383,8.159,0.685,16.704-1.243,24.52
				c-6.393,25.908-12.299,52.093-21.118,77.216c-26.427,75.288-48.895,151.617-64.707,229.841
				c-1.886,9.331-2.053,19.009-2.947,27.842c17.667,11.242,33.32,21.479,51.467,29.697c0.551-4.041,0.835-5.993,1.082-7.951
				c4.903-38.747,9.01-77.617,14.884-116.217c9.371-61.574,32.393-118.876,58.653-174.81c7.335-15.623,18.605-29.487,28.788-43.642
				c4.131-5.743,9.849-10.517,15.432-15c7.026-5.642,15.139-9.726,24.175-5.085c8.929,4.586,10.588,13.437,10.51,22.484
				c-0.048,5.624-0.526,11.336-1.649,16.838c-1.539,7.535-3.456,15.05-5.937,22.326c-12.272,35.995-24.497,72.011-37.276,107.828
				c-23.503,65.868-44.748,132.412-61.498,200.341c-1.177,4.775-1.778,9.693-2.786,15.321c17.527,7.073,33.655,13.662,49.859,20.06
				C455.192,852.414,459.144,853.207,464.168,854.649z M412.177,202.06c5.904-11.669,10.172-24.088,17.628-34.147
				c32.511-43.868,89.761-49.845,135.251-15.181c3.463,2.639,6.248,6.814,7.914,10.865c0.721,1.753-2.203,5.005-3.868,8.382
				c-33.475-38.095-96.881-44.711-132.127,5.089c-10.481,14.809-16.693,31.418-6.617,48.989
				c11.967,20.869,11.195,42.128,4.414,64.041c-3.945,12.75-9.141,25.288-11.386,38.333c-1.681,9.772-1.714,20.887,1.254,30.217
				c12.864,40.438,55.609,50.15,84.836,19.837c6.762-7.014,13.083-14.557,18.837-22.419c13.388-18.297,31.4-24.571,52.853-19.827
				c10.39,2.298,20.296,7.095,30.108,11.463c2.377,1.058,3.514,4.896,7.219,10.449c-23.329-0.423-40.64-19.81-63.345-8.773
				c4.464,2.048,7.462,3.7,10.644,4.842c87.16,31.272,175.547,58.107,267.117,73.29c28.438,4.715,56.822,8.883,85.547,0.834
				c33.819-9.477,58.851-29.019,72.054-61.863c18.673-46.452-6.019-95.014-54.277-107.968c-20.547-5.516-40.692-3.87-60.585,3.301
				c-4.968,1.791-9.967,6.424-15.739,0.805c0-1.331-0.51-3.896,0.076-4.177c11.298-5.42,22.725-10.572,35.26-16.298
				c6.043-29.177-4.625-53.491-26.479-73.501c-22.009-20.151-48.765-30.12-78.115-33.203c-32.591-3.425-63.521,2.021-92.044,18.834
				c-4.35,2.564-8.664,6.067-14.014-0.14c5.156-13.409,20.931-13.079,29.254-21.752c-2.304-15.659-6.307-25.686-15.243-36.724
				c-44.144-54.524-128.459-40.582-148.547,14.017c-1.588,4.316-3.385,9.096-9.801,6.697c-1.349-7.496-1.349-7.496,4.075-24.355
				c-32.643-25.726-87.021-21.561-118.968,8.503C398.342,125.949,389.606,172.068,412.177,202.06z M671.86,894.252
				c-28.591,9.755-56.181,8.457-83.722,4.63c-68.301-9.49-132.931-31.437-195.317-59.977
				c-56.708-25.942-111.93-54.555-153.684-102.571c-19.781,3.63-33.916,9.339-48.529,19.501
				c-25.065,17.431-25.979,28.245-4.345,50.167c40.415,40.954,85.6,75.217,137.446,100.767
				c36.536,18.004,73.94,33.636,112.96,45.094c63.72,18.712,128.035,34.774,194.975,36.13c10.154,0.207,20.652-0.324,30.443-2.734
				c11.033-2.716,19.575-10.17,20.432-22.475C684.141,939.48,678.84,917.227,671.86,894.252z M756.916,782.576
				c-7.672,11.433-12.749,20.932-19.651,28.84c-10.795,12.37-12.184,26.198-10.68,41.587c2.682,27.439,28.197,63.919,61.49,66.207
				c25.307,1.74,49.152-2.025,70.836-16.104c29.336-19.047,54.16-42.944,72.915-72.26c17.708-27.68,34.219-56.234,49.496-85.328
				c15.277-29.093,29.364-58.927,37.336-91.13c8.023-32.406,8.243-64.186-7.956-94.515c-17.685-33.11-46.453-48.852-82.291-44.664
				c-10.173,1.189-20.197,3.704-30.264,5.734c-11.644,2.348-18.692,9.572-22.908,20.57c-6.989,18.23-14.642,36.204-21.889,54.337
				c-1.184,2.963-1.717,6.186-2.868,10.468c6.868-3.923,11.993-7.481,17.612-9.883c5.612-2.399,11.612-4.277,17.625-5.28
				c22.506-3.752,38.088,7.693,41.931,30.248c2.721,15.971,1.456,31.806-2.092,47.444c-10.173,44.825-30.385,85.055-57.36,121.941
				c-6.009,8.217-13.179,16.177-21.396,22.042c-10.314,7.361-21.668,14.24-33.613,18.147c-28.669,9.376-51.473-6.31-55.231-36.32
				C757.601,791.797,757.456,788.913,756.916,782.576z M624.76,495.878c-15.277,3.484-18.124,5.24-26.698,15.778
				c-13.731,16.879-24.481,35.536-32.156,55.856c-13.239,35.053-26.787,70.009-39.063,105.402
				c-16.982,48.962-34.774,97.735-45.254,148.676c-2.548,12.384-4.005,24.992-6.078,38.227c14.527,4.313,27.039,8.029,39.942,11.86
				c2.717-7.174,4.826-12.361,6.659-17.643c26.245-75.645,52.527-151.278,78.618-226.977c6.855-19.888,13.401-39.896,19.516-60.023
				c5.386-17.728,9.587-35.79,7.901-54.554C627.67,507.149,626.029,501.921,624.76,495.878z M917.857,648.328
				c0.413-27.192-3.94-39.224-13.385-43.912c-13.652-6.776-26.552-2.173-37.826,5.224c-16.879,11.075-30.81,25.505-40.128,43.747
				c-13.058,25.565-25.525,51.439-38.955,76.804c-9.254,17.478-15.8,35.703-17.643,55.299c-2.62,27.867,16.518,43.241,42.726,33.746
				c10.375-3.759,20.184-10.105,28.965-16.928c7.572-5.884,14.036-13.592,19.741-21.406c20.098-27.524,35.779-57.541,46.194-89.965
				C912.842,674.454,915.759,657.208,917.857,648.328z M497.707,457.706c-9.179-3.752-13.669,1.101-18.177,5.124
				c-15.557,13.884-27.638,30.681-36.352,49.339c-24.15,51.707-46.275,104.327-56.136,160.945
				c-6.249,35.88-10.685,72.083-15.542,108.194c-1.486,11.043-1.666,22.262-2.471,33.784c7.63,3.601,13.903,6.561,21.239,10.023
				c1.433-4.311,2.493-7.049,3.256-9.867c8.988-33.19,16.552-66.84,27.173-99.497c22.381-68.818,46.493-137.073,69.546-205.676
				c3.904-11.616,6.659-23.713,8.778-35.792C500.002,468.696,498.173,462.617,497.707,457.706z M577.051,884.348
				c23.677,7.611,27.719,6.575,42.435-10.614c3.339-3.9,6.783-7.779,9.597-12.05c28.535-43.295,58.427-85.788,84.982-130.269
				c26.673-44.676,45.614-93.126,56.914-144.13c2.168-9.784,2.255-20.549,0.797-30.495c-2.204-15.036-11.357-18.168-22.337-7.367
				c-7.888,7.759-14.812,17.343-19.468,27.365c-10.147,21.842-18.986,44.326-27.625,66.828
				c-24.876,64.792-51.979,128.536-88.779,187.635C602.473,849.07,589.8,865.906,577.051,884.348z M294.131,768.892
				c0.796-2.882,1.797-5.714,2.352-8.63c11.332-59.525,24.524-118.568,43.965-176.086c12.158-35.971,24.507-71.916,35.134-108.349
				c4.97-17.039,6.555-35.153,8.541-52.907c0.458-4.093-2.752-11.045-6.055-12.425c-3.335-1.393-10.488,1.158-13.147,4.339
				c-7.163,8.568-14.356,17.72-18.808,27.839c-17.166,39.016-33.228,78.666-41.911,120.495
				c-7.811,37.628-13.588,75.727-18.885,113.81c-3.173,22.812-4.019,45.975-5.268,69.014
				C279.51,755.954,281.096,765.707,294.131,768.892z M406.498,218.994c-6.018,12.365,2.376,29.894,21.095,43.094
				C429.673,242.82,420.635,229.687,406.498,218.994z"/>
			<path fill="none" stroke="#0B3651" stroke-width="3" stroke-linecap="round" stroke-linejoin="round" stroke-miterlimit="10" d="
				M910.906,291.844c0,0,72.576,3.584,39.424,86.016"/>
			<path fill="none" stroke="#0B3651" stroke-width="3" stroke-linecap="round" stroke-linejoin="round" stroke-miterlimit="10" d="
				M487.995,169.092c0,0-45.696-5.924-44.8,49.902"/>
			<path fill="none" stroke="#0B3651" stroke-width="3" stroke-linecap="round" stroke-linejoin="round" stroke-miterlimit="10" d="
				M447.675,304.388c0,0-31.396,62.676,17.913,73.472"/>
			<path fill="none" stroke="#0B3651" stroke-width="3" stroke-linecap="round" stroke-linejoin="round" stroke-miterlimit="10" d="
				M628.526,75.909c0,0,50.316-8.064,65.548,51.072"/>
			<circle fill="#0B3651" cx="875.04" cy="377.86" r="16.251"/>
			<path fill="#0B3651" d="M849.447,350.468c0,6.153-4.988,11.141-11.141,11.141c-6.152,0-11.14-4.988-11.14-11.141
				c0-6.152,4.988-11.14,11.14-11.14C844.459,339.328,849.447,344.315,849.447,350.468z"/>
			<circle fill="#0B3651" cx="831.899" cy="389.743" r="11.883"/>
			<path fill="#E1FFF9" d="M1018.658,654.388c8.024-32.406,8.243-64.186-7.955-94.515c-17.685-33.11-46.454-48.851-82.291-44.664
				c-9.75,1.139-19.364,3.489-29.008,5.471c51.363,37.057,158.471,150.068-21.73,369.017c21.227-16.525,39.55-36.024,54.153-58.851
				c17.708-27.68,34.219-56.234,49.497-85.328C996.599,716.426,1010.686,686.592,1018.658,654.388z"/>
			<g>
				<g>
					<path fill="#F2BA2F" d="M291.563,771.007c-0.5-142.699,53.744-314.5,92.876-419.672c-2.867-14.598-2.257-30.323,2.151-46.614
						c2.562-9.472,5.766-18.457,8.915-27.237c-2.581-3.208-5.101-6.439-7.617-9.735c-18.867,33.977-35.867,70.293-51.747,110.48
						c-41.2,104.285-63.58,187.076-72.565,268.437c-1.847,16.718-5.376,83.36-4.77,99.375
						C269.622,754.902,280.56,763.21,291.563,771.007z"/>
					<path fill="#F2BA2F" d="M309.093,885.704c-7.591-26.089-11.718-54.757-13.087-85.037
						c-21.815-14.423-42.727-31.178-61.186-51.34c-14.674,3.308-25.865,8.212-37.432,16.254
						c-12.347,8.587-14.469,12.869-14.635,14.658c-0.166,1.812,1.163,6.485,11.961,17.425
						C230.702,834.133,268.299,863.077,309.093,885.704z"/>
				</g>
			</g>
		</g>
		<path fill="none" stroke="#0B3651" stroke-width="3" stroke-linecap="round" stroke-linejoin="round" stroke-miterlimit="10" d="
			M775.135,896.779c27.191,15.823,62.787,1.904,86.045-14.375"/>
		<path fill="none" stroke="#0B3651" stroke-width="3" stroke-linecap="round" stroke-linejoin="round" stroke-miterlimit="10" d="
			M508.217,948.649c0,0,59.961,18.561,121.177,16.056"/>
	</g>
	<path fill="#DD9900" d="M293.972,767.756c0.796-2.881,1.797-5.713,2.353-8.63c11.332-59.525,24.524-118.567,43.965-176.086
		c12.158-35.971,24.508-71.916,35.134-108.349c4.97-17.039,6.554-35.153,8.54-52.907c0.458-4.093-2.752-11.046-6.055-12.425
		c-3.334-1.394-10.487,1.158-13.147,4.338c-7.164,8.568-14.356,17.72-18.808,27.839c-17.166,39.016-33.227,78.666-41.911,120.496
		c-7.811,37.628-13.588,75.727-18.885,113.809c-3.173,22.812-4.019,45.975-5.267,69.014
		C279.352,754.818,280.938,764.571,293.972,767.756z"/>
	<path fill="#DD9900" d="M497.549,456.57c-9.179-3.753-13.67,1.101-18.177,5.124c-15.558,13.884-27.638,30.681-36.352,49.339
		c-24.15,51.707-46.275,104.327-56.135,160.946c-6.249,35.88-10.686,72.083-15.542,108.194c-1.486,11.044-1.666,22.262-2.471,33.784
		c7.63,3.601,13.903,6.561,21.239,10.023c1.433-4.311,2.493-7.049,3.256-9.867c8.988-33.19,16.552-66.839,27.173-99.497
		c22.381-68.819,46.493-137.073,69.547-205.676c3.904-11.616,6.659-23.712,8.777-35.791
		C499.844,467.561,498.015,461.481,497.549,456.57z"/>
	<path fill="#DD9900" d="M624.601,494.742c-15.278,3.484-18.125,5.239-26.698,15.778c-13.732,16.879-24.481,35.536-32.156,55.856
		c-13.239,35.053-26.787,70.009-39.063,105.402c-16.982,48.961-34.773,97.735-45.254,148.676
		c-2.548,12.384-4.005,24.992-6.078,38.227c14.527,4.313,27.039,8.029,39.942,11.86c2.717-7.174,4.826-12.361,6.659-17.643
		c26.245-75.646,52.527-151.278,78.618-226.977c6.855-19.889,13.402-39.896,19.517-60.023c5.386-17.728,9.587-35.789,7.9-54.553
		C627.512,506.013,625.871,500.785,624.601,494.742z"/>
	<path fill="#DD9900" d="M576.892,883.211c23.678,7.611,27.719,6.576,42.436-10.614c3.339-3.9,6.782-7.779,9.597-12.05
		c28.535-43.295,58.426-85.788,84.982-130.269c26.673-44.676,45.614-93.127,56.914-144.13c2.168-9.784,2.255-20.549,0.797-30.494
		c-2.204-15.036-11.357-18.168-22.337-7.367c-7.888,7.758-14.812,17.343-19.468,27.365c-10.147,21.842-18.986,44.326-27.625,66.828
		c-24.876,64.793-51.979,128.537-88.779,187.636C602.315,847.935,589.642,864.769,576.892,883.211z"/>
	
		<path fill="#FFFFFF" stroke="#0B3651" stroke-width="3" stroke-linecap="round" stroke-linejoin="round" stroke-miterlimit="10" d="
		M286.303,105.14c0,0,6.596,73.699,46.689,97.719c0,0-45.691,31.773-52.442,96.884c0,0-5.974-65.048-41.31-101.597
		C239.24,198.145,276.971,183.367,286.303,105.14z"/>
	
		<path fill="#FFFFFF" stroke="#0B3651" stroke-width="3" stroke-linecap="round" stroke-linejoin="round" stroke-miterlimit="10" d="
		M728.325,955.397c0,0,6.596,73.699,46.689,97.719c0,0-45.691,31.773-52.442,96.884c0,0-5.974-65.048-41.31-101.597
		C681.262,1048.403,718.992,1033.624,728.325,955.397z"/>
	
		<path fill="#F2BA2F" stroke="#0B3651" stroke-width="3" stroke-linecap="round" stroke-linejoin="round" stroke-miterlimit="10" d="
		M193.09,674.673c-0.972,16.276-14.954,28.683-31.23,27.712c-16.276-0.972-28.683-14.954-27.712-31.23
		c0.972-16.276,14.954-28.683,31.23-27.712C181.655,644.415,194.062,658.397,193.09,674.673z"/>
	
		<path fill="#F2BA2F" stroke="#0B3651" stroke-width="3" stroke-linecap="round" stroke-linejoin="round" stroke-miterlimit="10" d="
		M1068.851,444.932c-0.971,16.276-14.953,28.683-31.229,27.712c-16.276-0.972-28.683-14.954-27.712-31.23
		c0.972-16.276,14.954-28.683,31.23-27.712C1057.416,414.674,1069.823,428.656,1068.851,444.932z"/>
</g>
</svg>
